<?xml version="1.0" encoding="UTF-8"?>
<svg version="1.1" xmlns="http://www.w3.org/2000/svg" width="500" height="500">
<path d="M0 0 C1.18517212 0.01353516 1.18517212 0.01353516 2.39428711 0.02734375 C12.69516789 0.33227269 18.9500412 3.70267618 26.5078125 10.6328125 C28.125 12.4375 28.125 12.4375 28.125 14.4375 C28.785 14.4375 29.445 14.4375 30.125 14.4375 C34.49525085 21.57557639 36.48875685 27.8980836 36.375 36.375 C36.37113281 37.0757666 36.36726563 37.7765332 36.36328125 38.49853516 C36.27999791 43.47124436 35.63373118 47.72271505 34.125 52.4375 C34.125 53.0975 34.125 53.7575 34.125 54.4375 C34.723125 54.705625 35.32125 54.97375 35.9375 55.25 C38.12347854 56.43667406 39.53832594 57.53349113 41.125 59.4375 C41.125 60.0975 41.125 60.7575 41.125 61.4375 C41.785 61.4375 42.445 61.4375 43.125 61.4375 C43.125 62.0975 43.125 62.7575 43.125 63.4375 C43.785 63.4375 44.445 63.4375 45.125 63.4375 C45.125 64.0975 45.125 64.7575 45.125 65.4375 C45.785 65.4375 46.445 65.4375 47.125 65.4375 C47.125 66.0975 47.125 66.7575 47.125 67.4375 C47.785 67.4375 48.445 67.4375 49.125 67.4375 C49.125 68.0975 49.125 68.7575 49.125 69.4375 C50.0221875 69.8396875 50.0221875 69.8396875 50.9375 70.25 C53.12347854 71.43667406 54.53832594 72.53349113 56.125 74.4375 C56.125 75.0975 56.125 75.7575 56.125 76.4375 C56.785 76.4375 57.445 76.4375 58.125 76.4375 C58.125 77.0975 58.125 77.7575 58.125 78.4375 C58.785 78.4375 59.445 78.4375 60.125 78.4375 C60.125 79.0975 60.125 79.7575 60.125 80.4375 C60.785 80.4375 61.445 80.4375 62.125 80.4375 C62.125 81.0975 62.125 81.7575 62.125 82.4375 C62.785 82.4375 63.445 82.4375 64.125 82.4375 C64.125 83.0975 64.125 83.7575 64.125 84.4375 C64.764375 84.705625 65.40375 84.97375 66.0625 85.25 C68.125 86.4375 68.125 86.4375 69.125 89.4375 C69.785 89.4375 70.445 89.4375 71.125 89.4375 C71.125 90.0975 71.125 90.7575 71.125 91.4375 C71.785 91.4375 72.445 91.4375 73.125 91.4375 C73.125 92.0975 73.125 92.7575 73.125 93.4375 C73.785 93.4375 74.445 93.4375 75.125 93.4375 C75.125 94.0975 75.125 94.7575 75.125 95.4375 C75.785 95.4375 76.445 95.4375 77.125 95.4375 C77.125 96.0975 77.125 96.7575 77.125 97.4375 C78.0221875 97.8396875 78.0221875 97.8396875 78.9375 98.25 C81.12347854 99.43667406 82.53832594 100.53349113 84.125 102.4375 C84.125 103.0975 84.125 103.7575 84.125 104.4375 C84.785 104.4375 85.445 104.4375 86.125 104.4375 C86.125 105.0975 86.125 105.7575 86.125 106.4375 C86.785 106.4375 87.445 106.4375 88.125 106.4375 C88.125 107.0975 88.125 107.7575 88.125 108.4375 C88.785 108.4375 89.445 108.4375 90.125 108.4375 C90.125 109.0975 90.125 109.7575 90.125 110.4375 C90.785 110.4375 91.445 110.4375 92.125 110.4375 C92.125 111.0975 92.125 111.7575 92.125 112.4375 C92.764375 112.705625 93.40375 112.97375 94.0625 113.25 C96.125 114.4375 96.125 114.4375 97.125 117.4375 C97.785 117.4375 98.445 117.4375 99.125 117.4375 C99.125 118.0975 99.125 118.7575 99.125 119.4375 C99.785 119.4375 100.445 119.4375 101.125 119.4375 C101.125 120.0975 101.125 120.7575 101.125 121.4375 C101.785 121.4375 102.445 121.4375 103.125 121.4375 C103.125 122.0975 103.125 122.7575 103.125 123.4375 C103.785 123.4375 104.445 123.4375 105.125 123.4375 C103.81192628 126.33602365 102.39815362 128.42027217 100.15625 130.671875 C99.58519531 131.24550781 99.01414062 131.81914062 98.42578125 132.41015625 C97.83152344 132.99667969 97.23726562 133.58320313 96.625 134.1875 C96.03074219 134.78949219 95.43648437 135.39148438 94.82421875 136.01171875 C94.25316406 136.58019531 93.68210937 137.14867187 93.09375 137.734375 C92.57232422 138.25354492 92.05089844 138.77271484 91.51367188 139.30761719 C90.125 140.4375 90.125 140.4375 88.125 140.4375 C88.125 141.0975 88.125 141.7575 88.125 142.4375 C87.465 142.4375 86.805 142.4375 86.125 142.4375 C86.125 143.0975 86.125 143.7575 86.125 144.4375 C85.465 144.4375 84.805 144.4375 84.125 144.4375 C83.72976135 145.31973236 83.72976135 145.31973236 83.32653809 146.2197876 C82.07262429 148.53417131 80.75438424 150.06178115 78.90039062 151.92089844 C78.24631226 152.58128113 77.59223389 153.24166382 76.91833496 153.92205811 C76.21309692 154.62324768 75.50785889 155.32443726 74.78125 156.046875 C74.05635376 156.77368469 73.33145752 157.50049438 72.58459473 158.24932861 C71.05380989 159.78147279 69.52050303 161.31110075 67.98486328 162.83837891 C65.6268923 165.18561631 63.27980454 167.54335778 60.93359375 169.90234375 C59.44595364 171.38866282 57.95769356 172.87436169 56.46875 174.359375 C55.76351196 175.0686615 55.05827393 175.777948 54.33166504 176.50872803 C53.35054749 177.4803891 53.35054749 177.4803891 52.34960938 178.47167969 C51.77384155 179.04585632 51.19807373 179.62003296 50.6048584 180.21160889 C49.125 181.4375 49.125 181.4375 47.125 181.4375 C47.125 182.0975 47.125 182.7575 47.125 183.4375 C46.465 183.4375 45.805 183.4375 45.125 183.4375 C45.125 184.0975 45.125 184.7575 45.125 185.4375 C44.465 185.4375 43.805 185.4375 43.125 185.4375 C43.125 186.0975 43.125 186.7575 43.125 187.4375 C42.465 187.4375 41.805 187.4375 41.125 187.4375 C40.898125 187.994375 40.67125 188.55125 40.4375 189.125 C39.125 191.4375 39.125 191.4375 36.375 193.6875 C35.6325 194.595 34.89 195.5025 34.125 196.4375 C34.57406165 198.37303886 35.03554171 200.30724644 35.58300781 202.21728516 C36.45953625 205.80789309 36.41494294 209.32192138 36.375 213 C36.38660156 214.07411133 36.38660156 214.07411133 36.3984375 215.16992188 C36.38105013 219.94710235 35.62693233 223.90190278 34.125 228.4375 C33.465 228.4375 32.805 228.4375 32.125 228.4375 C32.021875 229.01757812 31.91875 229.59765625 31.8125 230.1953125 C29.79616274 236.77132152 23.12849032 241.69083173 17.50390625 245.18359375 C9.25302763 249.53257903 0.42428365 250.90123396 -8.69921875 248.78125 C-15.64774192 246.53291335 -23.41176969 242.82343986 -27.12109375 236.21875 C-27.36988281 235.6309375 -27.61867187 235.043125 -27.875 234.4375 C-28.535 234.4375 -29.195 234.4375 -29.875 234.4375 C-34.971923 224.91169732 -37.63894077 215.7679356 -35.33984375 204.91015625 C-33.44409583 198.84997848 -30.38692551 193.70538827 -26.875 188.4375 C-26.215 188.4375 -25.555 188.4375 -24.875 188.4375 C-24.875 187.7775 -24.875 187.1175 -24.875 186.4375 C-24.215 186.4375 -23.555 186.4375 -22.875 186.4375 C-22.875 185.7775 -22.875 185.1175 -22.875 184.4375 C-20.96088443 183.45335567 -19.0436033 182.47536651 -17.125 181.5 C-16.05765625 180.95472656 -14.9903125 180.40945313 -13.890625 179.84765625 C-9.35862554 177.72841816 -5.87654601 177.28064673 -0.875 177.25 C0.15625 177.23582031 1.1875 177.22164062 2.25 177.20703125 C6.125 177.4375 6.125 177.4375 8.75927734 178.34863281 C12.19144007 179.40127627 14.53865755 179.83630854 18.125 179.4375 C23.54583298 176.33715875 27.62819761 171.15436326 31.75 166.5625 C33.49570495 164.68712784 35.25126439 162.82151923 37.01010132 160.95846558 C38.09748435 159.79929524 39.17518499 158.63095159 40.24209595 157.45291138 C41.49821903 156.07854826 42.8071018 154.75274275 44.125 153.4375 C44.785 153.4375 45.445 153.4375 46.125 153.4375 C46.125 152.7775 46.125 152.1175 46.125 151.4375 C46.785 151.4375 47.445 151.4375 48.125 151.4375 C48.125 150.7775 48.125 150.1175 48.125 149.4375 C48.785 149.4375 49.445 149.4375 50.125 149.4375 C50.125 148.7775 50.125 148.1175 50.125 147.4375 C50.785 147.4375 51.445 147.4375 52.125 147.4375 C52.125 146.7775 52.125 146.1175 52.125 145.4375 C52.785 145.4375 53.445 145.4375 54.125 145.4375 C54.37878418 144.85774414 54.63256836 144.27798828 54.89404297 143.68066406 C56.26258615 141.18677777 57.79497769 139.54006164 59.8203125 137.546875 C60.53574219 136.83789062 61.25117188 136.12890625 61.98828125 135.3984375 C63.10783203 134.30402344 63.10783203 134.30402344 64.25 133.1875 C65.00410156 132.44242188 65.75820312 131.69734375 66.53515625 130.9296875 C68.39400772 129.0943658 70.25737005 127.2638809 72.125 125.4375 C67.95110583 120.45543847 63.57650334 115.85552547 58.8828125 111.35546875 C57.125 109.4375 57.125 109.4375 57.125 107.4375 C56.54975586 107.18677734 55.97451172 106.93605469 55.38183594 106.67773438 C52.82058804 105.27021173 51.08442608 103.65579975 49.015625 101.59375 C47.88447266 100.46646484 47.88447266 100.46646484 46.73046875 99.31640625 C45.95316406 98.53136719 45.17585938 97.74632812 44.375 96.9375 C43.58222656 96.15246094 42.78945312 95.36742187 41.97265625 94.55859375 C41.22371094 93.80707031 40.47476563 93.05554688 39.703125 92.28125 C39.01637695 91.59224609 38.32962891 90.90324219 37.62207031 90.19335938 C36.125 88.4375 36.125 88.4375 36.125 86.4375 C35.465 86.4375 34.805 86.4375 34.125 86.4375 C34.125 85.7775 34.125 85.1175 34.125 84.4375 C33.50625 84.19 32.8875 83.9425 32.25 83.6875 C29.77431313 82.23121361 29.17374998 81.05937494 28.125 78.4375 C27.465 78.4375 26.805 78.4375 26.125 78.4375 C26.125 77.7775 26.125 77.1175 26.125 76.4375 C24.805 75.7775 23.485 75.1175 22.125 74.4375 C22.125 73.7775 22.125 73.1175 22.125 72.4375 C21.465 72.4375 20.805 72.4375 20.125 72.4375 C20.125 71.7775 20.125 71.1175 20.125 70.4375 C19.465 70.4375 18.805 70.4375 18.125 70.4375 C18.125 69.7775 18.125 69.1175 18.125 68.4375 C16.56652344 68.88802734 16.56652344 68.88802734 14.9765625 69.34765625 C1.12075456 73.19519744 -8.0593593 72.54163316 -21 65.8125 C-21.61875 65.35875 -22.2375 64.905 -22.875 64.4375 C-22.875 63.7775 -22.875 63.1175 -22.875 62.4375 C-23.535 62.4375 -24.195 62.4375 -24.875 62.4375 C-24.875 61.7775 -24.875 61.1175 -24.875 60.4375 C-25.535 60.4375 -26.195 60.4375 -26.875 60.4375 C-33.75425457 52.29101433 -36.64476112 43.28196413 -36.25390625 32.640625 C-34.95645476 21.67247843 -29.5053855 12.91344185 -20.9375 6.0625 C-14.61210509 1.30802734 -7.76383648 -0.10645646 0 0 Z M-6.875 21.4375 C-6.875 22.0975 -6.875 22.7575 -6.875 23.4375 C-7.473125 23.685 -8.07125 23.9325 -8.6875 24.1875 C-12.23258004 26.21326002 -13.60164719 28.61744156 -14.875 32.4375 C-15.27114654 37.68644167 -14.74057317 40.99092094 -11.875 45.4375 C-8.82700486 48.32507434 -5.9541496 50.36915129 -1.875 51.4375 C3.07878252 51.16729368 6.96789238 50.17741184 11.125 47.4375 C12.98416824 44.47042954 12.98416824 44.47042954 14.125 41.4375 C14.455 40.7775 14.785 40.1175 15.125 39.4375 C15.56724561 33.79886848 14.63639519 30.36369827 12.125 25.4375 C11.465 24.7775 10.805 24.1175 10.125 23.4375 C9.135 23.4375 8.145 23.4375 7.125 23.4375 C7.125 22.7775 7.125 22.1175 7.125 21.4375 C0.09717958 20.3984283 0.09717958 20.3984283 -6.875 21.4375 Z M-12.875 204.4375 C-15.01404047 208.49041878 -15.27358184 211.89366707 -14.875 216.4375 C-13.12783727 221.2907298 -10.44481065 224.94938184 -5.875 227.4375 C-1.219304 228.81979225 2.28292638 228.68598074 6.9375 227.3125 C10.8106796 225.03415906 13.191517 222.77120751 14.875 218.5625 C15.65355999 211.94474004 15.28878504 206.79924554 11.125 201.4375 C7.68143835 198.82185849 4.30468098 197.63010098 0.0625 196.9375 C-4.91740781 197.78514388 -9.76913408 200.35083432 -12.875 204.4375 Z " fill="#3E47E0" transform="translate(180.875,124.5625)"/>
<path d="M0 0 C2.39704699 0.87656957 3.57739671 1.87914982 5.37680435 3.67911434 C6.00495041 4.30024609 6.63309647 4.92137783 7.28027725 5.56133175 C8.29663757 6.58915768 8.29663757 6.58915768 9.33353043 7.63774776 C10.05587875 8.35644543 10.77822708 9.07514309 11.52246475 9.81561947 C13.91063719 12.19567868 16.28777201 14.58643657 18.66458511 16.97783566 C20.31745548 18.63122444 21.97084372 20.28409567 23.62472916 21.93646908 C27.08937595 25.40120563 30.54879064 28.87105801 34.00442886 32.34477901 C38.44386863 36.80693238 42.89432385 41.25790073 47.34850311 45.70533562 C50.76311345 49.1166122 54.17273131 52.53284228 57.5807457 55.95070744 C59.22054247 57.59436476 60.8617036 59.23666205 62.50422287 60.87759876 C64.79344774 63.16645467 67.07609226 65.46166952 69.35696793 67.75884151 C70.0426384 68.44203457 70.72830887 69.12522762 71.43475723 69.8291235 C72.05162399 70.45307507 72.66849075 71.07702663 73.30405045 71.71988583 C74.1148097 72.53372439 74.1148097 72.53372439 74.94194794 73.36400414 C76.08646011 74.76299191 76.08646011 74.76299191 76.08646011 76.76299191 C78.06646011 77.75299191 78.06646011 77.75299191 80.08646011 78.76299191 C80.08646011 79.42299191 80.08646011 80.08299191 80.08646011 80.76299191 C80.98364761 81.16517941 80.98364761 81.16517941 81.89896011 81.57549191 C84.08493865 82.76216597 85.49978605 83.85898303 87.08646011 85.76299191 C87.08646011 86.42299191 87.08646011 87.08299191 87.08646011 87.76299191 C87.74646011 87.76299191 88.40646011 87.76299191 89.08646011 87.76299191 C89.08646011 88.42299191 89.08646011 89.08299191 89.08646011 89.76299191 C89.74646011 89.76299191 90.40646011 89.76299191 91.08646011 89.76299191 C91.08646011 90.42299191 91.08646011 91.08299191 91.08646011 91.76299191 C91.74646011 91.76299191 92.40646011 91.76299191 93.08646011 91.76299191 C93.08646011 92.42299191 93.08646011 93.08299191 93.08646011 93.76299191 C93.74646011 93.76299191 94.40646011 93.76299191 95.08646011 93.76299191 C95.08646011 94.42299191 95.08646011 95.08299191 95.08646011 95.76299191 C95.72583511 96.03111691 96.36521011 96.29924191 97.02396011 96.57549191 C99.08646011 97.76299191 99.08646011 97.76299191 100.08646011 100.76299191 C100.74646011 100.76299191 101.40646011 100.76299191 102.08646011 100.76299191 C102.08646011 101.42299191 102.08646011 102.08299191 102.08646011 102.76299191 C102.74646011 102.76299191 103.40646011 102.76299191 104.08646011 102.76299191 C104.08646011 103.42299191 104.08646011 104.08299191 104.08646011 104.76299191 C104.74646011 104.76299191 105.40646011 104.76299191 106.08646011 104.76299191 C106.08646011 105.42299191 106.08646011 106.08299191 106.08646011 106.76299191 C106.74646011 106.76299191 107.40646011 106.76299191 108.08646011 106.76299191 C108.08646011 107.42299191 108.08646011 108.08299191 108.08646011 108.76299191 C108.74646011 108.76299191 109.40646011 108.76299191 110.08646011 108.76299191 C109.54124885 112.61206132 108.03455583 113.99828786 105.0972023 116.4480505 C100.26855581 120.64879138 95.69195248 125.03781423 91.16165543 129.55840206 C90.43317272 130.28474031 89.70469002 131.01107857 88.95413208 131.75942707 C86.60552672 134.10488919 84.2599227 136.45332502 81.91458511 138.80205441 C80.26187846 140.45408619 78.60902349 142.1059696 76.95602798 143.75771236 C73.50845871 147.20381453 70.06268632 150.65170054 66.61819839 154.10088253 C62.21473879 158.51005231 57.80678612 162.91469865 53.39748383 167.31802464 C49.9898193 170.72206833 46.58454906 174.12849915 43.17998886 177.53564739 C41.55569867 179.16060193 39.93067287 180.78482151 38.30488205 182.40827465 C36.03204821 184.67855542 33.76246718 186.95204032 31.49368668 189.22637081 C30.82966339 189.88836987 30.16564011 190.55036892 29.4814949 191.23242855 C25.88957083 194.84056206 22.52178164 198.52450549 19.3338623 202.49670124 C18.71639822 203.12351512 18.71639822 203.12351512 18.08646011 203.76299191 C17.42646011 203.76299191 16.76646011 203.76299191 16.08646011 203.76299191 C15.42646011 205.08299191 14.76646011 206.40299191 14.08646011 207.76299191 C13.42646011 207.76299191 12.76646011 207.76299191 12.08646011 207.76299191 C12.08646011 208.42299191 12.08646011 209.08299191 12.08646011 209.76299191 C11.42646011 209.76299191 10.76646011 209.76299191 10.08646011 209.76299191 C10.08646011 210.42299191 10.08646011 211.08299191 10.08646011 211.76299191 C9.42646011 211.76299191 8.76646011 211.76299191 8.08646011 211.76299191 C8.08646011 212.42299191 8.08646011 213.08299191 8.08646011 213.76299191 C7.42646011 213.76299191 6.76646011 213.76299191 6.08646011 213.76299191 C6.08646011 214.42299191 6.08646011 215.08299191 6.08646011 215.76299191 C5.42646011 215.76299191 4.76646011 215.76299191 4.08646011 215.76299191 C4.08646011 216.42299191 4.08646011 217.08299191 4.08646011 217.76299191 C3.42646011 217.76299191 2.76646011 217.76299191 2.08646011 217.76299191 C2.08646011 218.42299191 2.08646011 219.08299191 2.08646011 219.76299191 C1.09646011 220.09299191 0.10646011 220.42299191 -0.91353989 220.76299191 C-1.57353989 220.43299191 -2.23353989 220.10299191 -2.91353989 219.76299191 C-2.91353989 219.10299191 -2.91353989 218.44299191 -2.91353989 217.76299191 C-3.57353989 217.76299191 -4.23353989 217.76299191 -4.91353989 217.76299191 C-4.91353989 217.10299191 -4.91353989 216.44299191 -4.91353989 215.76299191 C-5.57353989 215.76299191 -6.23353989 215.76299191 -6.91353989 215.76299191 C-6.91353989 215.10299191 -6.91353989 214.44299191 -6.91353989 213.76299191 C-7.57353989 213.76299191 -8.23353989 213.76299191 -8.91353989 213.76299191 C-8.91353989 213.10299191 -8.91353989 212.44299191 -8.91353989 211.76299191 C-9.57353989 211.76299191 -10.23353989 211.76299191 -10.91353989 211.76299191 C-13.53853989 209.38799191 -13.53853989 209.38799191 -15.91353989 206.76299191 C-15.91353989 206.10299191 -15.91353989 205.44299191 -15.91353989 204.76299191 C-16.57353989 204.76299191 -17.23353989 204.76299191 -17.91353989 204.76299191 C-18.61957073 203.00660229 -18.61957073 203.00660229 -18.91353989 200.76299191 C-17.63102436 198.86523724 -17.63102436 198.86523724 -15.61704636 196.86522579 C-14.86114716 196.10245327 -14.10524796 195.33968075 -13.32644272 194.55379391 C-12.0587001 193.31301586 -12.0587001 193.31301586 -10.76534653 192.04717159 C-9.44883354 190.72956341 -9.44883354 190.72956341 -8.10572433 189.38533688 C-5.69307858 186.97558281 -3.26985203 184.57747283 -0.84131551 182.18379784 C1.69270781 179.68097928 4.21262784 177.16404407 6.73405838 174.64855099 C11.51238569 169.88577944 16.30331827 165.13589877 21.09887463 160.39048219 C26.5571773 154.9880191 32.00133033 149.5713929 37.44432247 144.15351152 C48.64266349 133.0074679 59.85870117 121.87940606 71.08646011 110.76299191 C66.55049355 105.31440014 61.72733939 100.29416616 56.67850113 95.32085323 C55.85671875 94.50695629 55.03493637 93.69305935 54.1882515 92.85449886 C52.41485172 91.09821889 50.64041925 89.34298118 48.86505699 87.58868504 C45.57938215 84.33975316 42.3008237 81.08370814 39.02281386 77.82704574 C38.54521398 77.35255671 38.0676141 76.87806769 37.5755415 76.38920021 C37.09467551 75.91145035 36.61380953 75.43370049 36.11837184 74.94147336 C29.61004646 68.47608095 23.0971237 62.01542189 16.57010269 55.56890011 C11.68259092 50.7415621 6.80818681 45.90128922 1.94124031 41.0532198 C0.08328899 39.20704723 -1.77919902 37.36542906 -3.64620399 35.52841282 C-6.24612345 32.96924276 -8.83033123 30.39516488 -11.41134262 27.81694698 C-12.19097366 27.05686337 -12.97060471 26.29677975 -13.77386093 25.51366329 C-14.47060425 24.81149181 -15.16734756 24.10932034 -15.88520432 23.38587093 C-16.49777808 22.77920495 -17.11035185 22.17253897 -17.74148846 21.54748917 C-18.91353989 19.76299191 -18.91353989 19.76299191 -18.69773579 17.65773201 C-16.98289092 13.51439827 -13.22796659 10.56647573 -10.10103989 7.45049191 C-9.37594223 6.69703487 -8.65084457 5.94357784 -7.90377426 5.16728878 C-7.19930161 4.460238 -6.49482895 3.75318722 -5.76900864 3.02471066 C-5.12600815 2.37462032 -4.48300766 1.72452999 -3.82052231 1.05473995 C-1.91353989 -0.23700809 -1.91353989 -0.23700809 0 0 Z " fill="#3B47E2" transform="translate(274.9135398864746,139.2370080947876)"/>
<path d="M0 0 C2.12448433 0.9534479 3.34731888 1.92817416 4.96313477 3.59667969 C5.7559082 4.40395508 5.7559082 4.40395508 6.56469727 5.22753906 C7.10352539 5.79150391 7.64235352 6.35546875 8.19750977 6.93652344 C8.75180664 7.50435547 9.30610352 8.0721875 9.87719727 8.65722656 C11.2408519 10.05614813 12.59511393 11.46421457 13.94750977 12.87402344 C10.94750977 13.87402344 10.94750977 13.87402344 7.88500977 12.74902344 C4.63697657 10.67581076 3.93282378 9.5196853 2.94750977 5.87402344 C1.95750977 5.87402344 0.96750977 5.87402344 -0.05249023 5.87402344 C-0.87749023 6.86402344 -1.70249023 7.85402344 -2.55249023 8.87402344 C-3.37749023 9.86402344 -4.20249023 10.85402344 -5.05249023 11.87402344 C-6.04249023 11.87402344 -7.03249023 11.87402344 -8.05249023 11.87402344 C-11.20284953 14.5743314 -13.58007032 16.62224421 -14.05249023 20.87402344 C-13.39249023 20.87402344 -12.73249023 20.87402344 -12.05249023 20.87402344 C-12.05249023 22.52402344 -12.05249023 24.17402344 -12.05249023 25.87402344 C-14.36249023 23.89402344 -16.67249023 21.91402344 -19.05249023 19.87402344 C-17.64823587 14.257006 -14.26465827 11.5721069 -10.23999023 7.56152344 C-9.51489258 6.80806641 -8.78979492 6.05460938 -8.04272461 5.27832031 C-7.33825195 4.57126953 -6.6337793 3.86421875 -5.90795898 3.13574219 C-5.2649585 2.48565186 -4.62195801 1.83556152 -3.95947266 1.16577148 C-2.05249023 -0.12597656 -2.05249023 -0.12597656 0 0 Z " fill="#4A4CE2" transform="translate(275.052490234375,139.1259765625)"/>
<path d="M0 0 C0.33 0 0.66 0 1 0 C1.06058594 1.01320313 1.12117187 2.02640625 1.18359375 3.0703125 C1.26806704 4.42188514 1.35271157 5.77344709 1.4375 7.125 C1.47681641 7.79015625 1.51613281 8.4553125 1.55664062 9.140625 C1.81184114 13.14531002 2.10136761 17.08410522 3 21 C3.66 21.33 4.32 21.66 5 22 C6.625 23.4375 6.625 23.4375 8 25 C8 25.66 8 26.32 8 27 C8.66 27.33 9.32 27.66 10 28 C10.33 26.35 10.66 24.7 11 23 C11.66 23 12.32 23 13 23 C12.34 25.97 11.68 28.94 11 32 C12.98 32 14.96 32 17 32 C17.99 34.31 18.98 36.62 20 39 C14.71860321 37.51460715 10.71945899 33.91327696 7 30 C7 29.34 7 28.68 7 28 C6.34 28 5.68 28 5 28 C0.18553775 19.00209724 -1.69713238 11.27864958 -1 1 C-0.67 0.67 -0.34 0.34 0 0 Z " fill="#303BAB" transform="translate(146,331)"/>
<path d="M0 0 C2.375 1.75 2.375 1.75 3.25 3.9375 C3.29125 4.535625 3.3325 5.13375 3.375 5.75 C1.725 5.09 0.075 4.43 -1.625 3.75 C-1.625 3.09 -1.625 2.43 -1.625 1.75 C-6.245 1.75 -10.865 1.75 -15.625 1.75 C-15.625 2.41 -15.625 3.07 -15.625 3.75 C-16.40875 4.348125 -17.1925 4.94625 -18 5.5625 C-20.77428773 7.87440644 -21.58766367 9.35508111 -22.625 12.75 C-23.285 12.75 -23.945 12.75 -24.625 12.75 C-24.955 11.1 -25.285 9.45 -25.625 7.75 C-24.635 7.75 -23.645 7.75 -22.625 7.75 C-22.625 6.1 -22.625 4.45 -22.625 2.75 C-20.975 2.42 -19.325 2.09 -17.625 1.75 C-17.625 1.09 -17.625 0.43 -17.625 -0.25 C-11.85861415 -2.17212862 -5.71474951 -1.97060328 0 0 Z " fill="#4243B1" transform="translate(189.625,144.25)"/>
<path d="M0 0 C0 3.6155034 -0.71055889 4.30173012 -3 7 C-3.70125 7.66 -4.4025 8.32 -5.125 9 C-7.07015368 11.0748306 -7.60438599 12.2307019 -8 15 C-8.66 15 -9.32 15 -10 15 C-10 16.32 -10 17.64 -10 19 C-10.99 19.33 -11.98 19.66 -13 20 C-13.78874338 13.95296738 -12.04822383 10.27948994 -8.80078125 5.1796875 C-6.1723986 1.99826122 -3.92967327 1.10030852 0 0 Z " fill="#4E4CDD" transform="translate(160,134)"/>
<path d="M0 0 C3.41120834 1.70560417 3.95738561 5.08467391 5.171875 8.546875 C7.1693763 16.87607851 7.10615038 25.98613203 4 34 C3.34 33.01 2.68 32.02 2 31 C2.3671875 29.20703125 2.3671875 29.20703125 3 27 C3.298895 20.27486257 3.2327571 13.62606943 2 7 C1.01 7.33 0.02 7.66 -1 8 C-1.625 5.6875 -1.625 5.6875 -2 3 C-1.34 2.01 -0.68 1.02 0 0 Z " fill="#353692" transform="translate(211,141)"/>
<path d="M0 0 C0.99 0.33 1.98 0.66 3 1 C3.6953125 2.85546875 3.6953125 2.85546875 4.125 5.1875 C4.2796875 5.99445313 4.434375 6.80140625 4.59375 7.6328125 C4.7278125 8.41398438 4.861875 9.19515625 5 10 C5.309375 11.7634375 5.309375 11.7634375 5.625 13.5625 C5.74875 14.366875 5.8725 15.17125 6 16 C3.125 16.125 3.125 16.125 0 16 C-0.66 15.34 -1.32 14.68 -2 14 C-1.7578125 10.7421875 -1.7578125 10.7421875 -1.125 6.875 C-0.92132813 5.59367188 -0.71765625 4.31234375 -0.5078125 2.9921875 C-0.34023437 2.00476563 -0.17265625 1.01734375 0 0 Z " fill="#4D4CDD" transform="translate(163,156)"/>
<path d="M0 0 C2.125 0.9375 2.125 0.9375 4 2 C3.0479279 3.00596297 2.08812654 4.00461563 1.125 5 C0.59132813 5.556875 0.05765625 6.11375 -0.4921875 6.6875 C-2 8 -2 8 -4 8 C-4 8.66 -4 9.32 -4 10 C-4.66 10 -5.32 10 -6 10 C-6 10.66 -6 11.32 -6 12 C-6.66 12 -7.32 12 -8 12 C-8.28875 12.639375 -8.5775 13.27875 -8.875 13.9375 C-10 16 -10 16 -12 17 C-12 15.35 -12 13.7 -12 12 C-10.68 11.67 -9.36 11.34 -8 11 C-8 10.01 -8 9.02 -8 8 C-7.01 8 -6.02 8 -5 8 C-5.33 5.69 -5.66 3.38 -6 1 C-4 1 -4 1 -2.375 2.5 C-1.92125 2.995 -1.4675 3.49 -1 4 C-1.33 3.01 -1.66 2.02 -2 1 C-1.34 0.67 -0.68 0.34 0 0 Z " fill="#3944C7" transform="translate(273,257)"/>
<path d="M0 0 C7.13729415 0.36601508 12.37246822 4.69289892 17.5625 9.25 C19 11 19 11 19 13 C19.66 13 20.32 13 21 13 C21 13.66 21 14.32 21 15 C19.68 15 18.36 15 17 15 C16.67 14.34 16.34 13.68 16 13 C15.01 13.33 14.02 13.66 13 14 C12.71125 13.030625 12.4225 12.06125 12.125 11.0625 C11.35785318 7.89335797 11.35785318 7.89335797 9 7 C9 6.34 9 5.68 9 5 C7.68 4.67 6.36 4.34 5 4 C5 3.34 5 2.68 5 2 C3.35 2 1.7 2 0 2 C0 1.34 0 0.68 0 0 Z " fill="#4142B7" transform="translate(190,126)"/>
<path d="M0 0 C1.32 0.33 2.64 0.66 4 1 C4 1.33 4 1.66 4 2 C5.65 2.33 7.3 2.66 9 3 C8.625 5.4375 8.625 5.4375 8 8 C7.01 8.495 7.01 8.495 6 9 C5.690625 9.66 5.38125 10.32 5.0625 11 C4 13 4 13 1 14 C0.731875 14.825 0.46375 15.65 0.1875 16.5 C-0.204375 17.325 -0.59625 18.15 -1 19 C-4.125 19.8125 -4.125 19.8125 -7 20 C-3 15.33333333 1 10.66666667 5 6 C3.35 4.02 1.7 2.04 0 0 Z " fill="#313AA7" transform="translate(341,243)"/>
<path d="M0 0 C0.99 0.495 0.99 0.495 2 1 C2 1.66 2 2.32 2 3 C2.66 3 3.32 3 4 3 C4 3.66 4 4.32 4 5 C4.66 5 5.32 5 6 5 C6 5.66 6 6.32 6 7 C6.66 7 7.32 7 8 7 C8 7.66 8 8.32 8 9 C8.66 9 9.32 9 10 9 C10 9.66 10 10.32 10 11 C10.66 11 11.32 11 12 11 C11.61479436 13.53910197 11.29902057 14.72751123 9.37109375 16.484375 C8.73300781 16.90203125 8.09492188 17.3196875 7.4375 17.75 C6.79683594 18.17796875 6.15617187 18.6059375 5.49609375 19.046875 C5.00238281 19.36140625 4.50867188 19.6759375 4 20 C4 18.68 4 17.36 4 16 C4.99 16 5.98 16 7 16 C6.67 13.69 6.34 11.38 6 9 C5.01 8.67 4.02 8.34 3 8 C3 7.34 3 6.68 3 6 C2.34 6 1.68 6 1 6 C0.67 4.02 0.34 2.04 0 0 Z " fill="#3039A0" transform="translate(373,237)"/>
<path d="M0 0 C0.66 0 1.32 0 2 0 C2 0.66 2 1.32 2 2 C2.66 2 3.32 2 4 2 C4 2.66 4 3.32 4 4 C4.66 4 5.32 4 6 4 C6 4.66 6 5.32 6 6 C6.66 6 7.32 6 8 6 C8 6.66 8 7.32 8 8 C8.598125 8.268125 9.19625 8.53625 9.8125 8.8125 C11.97224808 9.98493467 13.35790256 11.19369282 15 13 C14.67 13.66 14.34 14.32 14 15 C12.35 14.67 10.7 14.34 9 14 C9 13.01 9 12.02 9 11 C8.34 11 7.68 11 7 11 C6.67 10.34 6.34 9.68 6 9 C3.98330173 7.86649466 3.98330173 7.86649466 2 7 C2 5.68 2 4.36 2 3 C1.34 3 0.68 3 0 3 C0 2.01 0 1.02 0 0 Z " fill="#3338A6" transform="translate(250,214)"/>
<path d="M0 0 C0.33 0.99 0.66 1.98 1 3 C0.01 4.485 0.01 4.485 -1 6 C-1.66 6 -2.32 6 -3 6 C-3.66 7.98 -4.32 9.96 -5 12 C-5.33 11.34 -5.66 10.68 -6 10 C-6.66 10 -7.32 10 -8 10 C-8.20625 10.78375 -8.4125 11.5675 -8.625 12.375 C-10 15 -10 15 -13.125 16.3125 C-14.07375 16.539375 -15.0225 16.76625 -16 17 C-11.01595832 10.96668638 -5.58084697 5.4815829 0 0 Z " fill="#323AB0" transform="translate(292,304)"/>
<path d="M0 0 C2.875 0.3125 2.875 0.3125 6 1 C8 4 8 4 8 7 C9.32 6.67 10.64 6.34 12 6 C12 7.32 12 8.64 12 10 C12.99 10 13.98 10 15 10 C15.33 11.98 15.66 13.96 16 16 C10.35573231 11.31645873 4.9941954 6.3792354 0 1 C0 0.67 0 0.34 0 0 Z " fill="#33359B" transform="translate(269,171)"/>
<path d="M0 0 C0.66 0.99 1.32 1.98 2 3 C1.01 3.33 0.02 3.66 -1 4 C-0.67 4.680625 -0.34 5.36125 0 6.0625 C1.17307315 9.50840238 1.14180493 12.38397422 1 16 C0.01 16 -0.98 16 -2 16 C-2 15.34 -2 14.68 -2 14 C-2.66 14 -3.32 14 -4 14 C-4 10.37 -4 6.74 -4 3 C-3.01 2.67 -2.02 2.34 -1 2 C-0.67 1.34 -0.34 0.68 0 0 Z M-2 12 C-1.34 12.66 -0.68 13.32 0 14 C0 13.34 0 12.68 0 12 C-0.66 12 -1.32 12 -2 12 Z " fill="#4D4BE6" transform="translate(150,153)"/>
<path d="M0 0 C6.75 1.875 6.75 1.875 9 3 C9 3.66 9 4.32 9 5 C10.2375 5.12375 11.475 5.2475 12.75 5.375 C15.8762197 5.75746305 18.28879237 6.30549523 21 8 C21 8.66 21 9.32 21 10 C13.23478115 8.38388846 6.70496786 6.28372947 0 2 C0 1.34 0 0.68 0 0 Z " fill="#3B3DA0" transform="translate(158,187)"/>
<path d="M0 0 C0 3.24986616 -0.76815277 5.02907432 -2 8 C-2.35858516 9.32676508 -2.7018576 10.65835921 -3 12 C-2.34 12 -1.68 12 -1 12 C-1 13.65 -1 15.3 -1 17 C-3.31 15.02 -5.62 13.04 -8 11 C-6.96851752 6.87407007 -6.37713898 6.02929503 -3.4375 3.25 C-2.79683594 2.63640625 -2.15617187 2.0228125 -1.49609375 1.390625 C-1.00238281 0.93171875 -0.50867188 0.4728125 0 0 Z " fill="#3E3FA7" transform="translate(264,148)"/>
<path d="M0 0 C0.33 0.66 0.66 1.32 1 2 C-0.17467088 5.0468026 -1.76008265 7.62449444 -4 10 C-7.8125 10.5 -7.8125 10.5 -11 10 C-10.67 9.38125 -10.34 8.7625 -10 8.125 C-8.85806765 6.08981656 -8.85806765 6.08981656 -9 4 C-8.2575 4.0825 -7.515 4.165 -6.75 4.25 C-3.21842973 3.92894816 -2.23369636 2.64734383 0 0 Z " fill="#333EBF" transform="translate(203,300)"/>
<path d="M0 0 C0.66 0 1.32 0 2 0 C2 0.66 2 1.32 2 2 C2.66 2 3.32 2 4 2 C4 2.66 4 3.32 4 4 C4.66 4 5.32 4 6 4 C4.4169423 8.2742558 1.49431596 10.26531794 -2 13 C-2.33 11.35 -2.66 9.7 -3 8 C-1.68 8 -0.36 8 1 8 C0.67 5.36 0.34 2.72 0 0 Z " fill="#333EB8" transform="translate(280,244)"/>
<path d="M0 0 C0.99 0.33 1.98 0.66 3 1 C2.7525 1.556875 2.505 2.11375 2.25 2.6875 C1.71646324 5.24050936 1.71646324 5.24050936 3.9375 7.75 C4.618125 8.4925 5.29875 9.235 6 10 C4.02 10.99 4.02 10.99 2 12 C-2 6.5 -2 6.5 -2 2 C-1.34 1.34 -0.68 0.68 0 0 Z " fill="#3847EB" transform="translate(269,344)"/>
<path d="M0 0 C3.84108078 0.26798238 5.736021 0.794683 8.8125 3.1875 C11.205317 6.263979 11.73201762 8.15891922 12 12 C7.47384007 8.32167983 3.60575001 4.58913637 0 0 Z " fill="#32379F" transform="translate(301,203)"/>
<path d="M0 0 C2 3.75 2 3.75 2 6 C2.66 6 3.32 6 4 6 C3.67 7.98 3.34 9.96 3 12 C2.34 12 1.68 12 1 12 C1 12.99 1 13.98 1 15 C0.01 15.33 -0.98 15.66 -2 16 C-1.835 15.38125 -1.67 14.7625 -1.5 14.125 C-0.90550733 10.40942081 -0.97364267 6.86359737 -1.0625 3.109375 C-1 1 -1 1 0 0 Z " fill="#393BA1" transform="translate(196,153)"/>
<path d="M0 0 C1.32 0.66 2.64 1.32 4 2 C1.03 4.97 -1.94 7.94 -5 11 C-7 8 -7 8 -7 6 C-6.01 6 -5.02 6 -4 6 C-3.67 4.35 -3.34 2.7 -3 1 C-2.01 1.33 -1.02 1.66 0 2 C0 1.34 0 0.68 0 0 Z " fill="#313AB4" transform="translate(257,273)"/>
<path d="M0 0 C0.33 1.32 0.66 2.64 1 4 C0.01 4 -0.98 4 -2 4 C-2.12375 4.598125 -2.2475 5.19625 -2.375 5.8125 C-3 8 -3 8 -5 11 C-8.125 11.6875 -8.125 11.6875 -11 12 C-7.49102731 7.81576108 -3.91939465 3.80411834 0 0 Z " fill="#2E39A7" transform="translate(248,255)"/>
<path d="M0 0 C0.99 0.66 1.98 1.32 3 2 C2.34 3.32 1.68 4.64 1 6 C0.34 6 -0.32 6 -1 6 C-1.33 7.32 -1.66 8.64 -2 10 C-5 5.25 -5 5.25 -5 3 C-5.99 2.67 -6.98 2.34 -8 2 C-5.50935112 1.31292445 -3.62113708 1 -1 1 C-0.67 0.67 -0.34 0.34 0 0 Z " fill="#2F3DBC" transform="translate(197,323)"/>
<path d="M0 0 C4.13621084 3.3810038 7.81316569 6.66590534 11 11 C7.26512223 10.5020163 5.18762365 10.12508244 2 8 C0.57850516 5.0821948 0 3.26795703 0 0 Z " fill="#4041B6" transform="translate(278,142)"/>
<path d="M0 0 C0.99 0.33 1.98 0.66 3 1 C3.33 3.64 3.66 6.28 4 9 C1.69 9.66 -0.62 10.32 -3 11 C-2.67 10.236875 -2.34 9.47375 -2 8.6875 C-0.82563314 6.00930865 -0.82563314 6.00930865 -1 3 C-0.67 2.01 -0.34 1.02 0 0 Z " fill="#3949E9" transform="translate(277,243)"/>
<path d="M0 0 C2.16874252 0.50603992 3.99967627 0.99983813 6 2 C6 2.66 6 3.32 6 4 C7.2065625 4.309375 7.2065625 4.309375 8.4375 4.625 C9.283125 5.07875 10.12875 5.5325 11 6 C11.8125 9.125 11.8125 9.125 12 12 C7.47384007 8.32167983 3.60575001 4.58913637 0 0 Z " fill="#2C3397" transform="translate(313,215)"/>
<path d="M0 0 C0.33 0 0.66 0 1 0 C1 1.65 1 3.3 1 5 C1.66 5 2.32 5 3 5 C2.6875 6.875 2.6875 6.875 2 9 C1.01 9.66 0.02 10.32 -1 11 C-1.33 10.01 -1.66 9.02 -2 8 C-2.66 8 -3.32 8 -4 8 C-3.34 6.35 -2.68 4.7 -2 3 C-1.34 3 -0.68 3 0 3 C0 2.01 0 1.02 0 0 Z " fill="#4A4DE0" transform="translate(197,165)"/>
<path d="M0 0 C1.32 0 2.64 0 4 0 C4.061875 0.78375 4.12375 1.5675 4.1875 2.375 C4.455625 3.24125 4.72375 4.1075 5 5 C7.47636012 6.37466625 7.47636012 6.37466625 10 7 C9.67 7.99 9.34 8.98 9 10 C6.03 9.505 6.03 9.505 3 9 C3 7.68 3 6.36 3 5 C2.34 5 1.68 5 1 5 C0.67 3.35 0.34 1.7 0 0 Z " fill="#484CE1" transform="translate(266,162)"/>
<path d="M0 0 C1.98 0.66 3.96 1.32 6 2 C6 2.99 6 3.98 6 5 C7.32 4.67 8.64 4.34 10 4 C10 5.32 10 6.64 10 8 C10.66 8 11.32 8 12 8 C11.67 9.32 11.34 10.64 11 12 C9.82737096 10.88121617 8.66204862 9.75476949 7.5 8.625 C6.8503125 7.99851563 6.200625 7.37203125 5.53125 6.7265625 C4 5 4 5 4 3 C2.68 2.34 1.36 1.68 0 1 C0 0.67 0 0.34 0 0 Z " fill="#31389F" transform="translate(234,229)"/>
<path d="M0 0 C4.88049925 3.9419417 9.0580583 8.11950075 13 13 C10.33289346 12.84759391 8.5494129 12.50635081 6.5546875 10.66796875 C3 6.49375 3 6.49375 3 4 C2.01 3.67 1.02 3.34 0 3 C0 2.01 0 1.02 0 0 Z " fill="#383CA5" transform="translate(310,174)"/>
<path d="M0 0 C1.670625 0.061875 1.670625 0.061875 3.375 0.125 C3.375 1.115 3.375 2.105 3.375 3.125 C0.875 5.3125 0.875 5.3125 -1.625 7.125 C-2.285 6.135 -2.945 5.145 -3.625 4.125 C-4.285 3.465 -4.945 2.805 -5.625 2.125 C-3.625 0.125 -3.625 0.125 0 0 Z " fill="#3541CB" transform="translate(215.625,313.875)"/>
<path d="M0 0 C0 0.33 0 0.66 0 1 C-1.19238281 1.20496094 -2.38476562 1.40992188 -3.61328125 1.62109375 C-5.17970853 1.89310807 -6.74611364 2.16525015 -8.3125 2.4375 C-9.09818359 2.57220703 -9.88386719 2.70691406 -10.69335938 2.84570312 C-11.45068359 2.97783203 -12.20800781 3.10996094 -12.98828125 3.24609375 C-13.68477783 3.36654053 -14.38127441 3.4869873 -15.09887695 3.61108398 C-17.2095331 4.00335799 -17.2095331 4.00335799 -20 5 C-20.66 4.34 -21.32 3.68 -22 3 C-14.49783264 -0.0517291 -8.05364285 -0.33608711 0 0 Z " fill="#313CA4" transform="translate(187,302)"/>
<path d="M0 0 C1.98 0.66 3.96 1.32 6 2 C6.33 4.31 6.66 6.62 7 9 C5.68 8.67 4.36 8.34 3 8 C3 7.34 3 6.68 3 6 C2.34 6 1.68 6 1 6 C0.34 4.35 -0.32 2.7 -1 1 C-0.67 0.67 -0.34 0.34 0 0 Z " fill="#4848C2" transform="translate(153,179)"/>
<path d="M0 0 C0.33 0 0.66 0 1 0 C1.3690205 14.78132118 1.3690205 14.78132118 -1 21 C-1.66 21 -2.32 21 -3 21 C-3.14157065 17.95623095 -3.24552422 15.58925814 -2.0625 12.75 C-0.46730449 8.62125869 -0.32385994 4.38915439 0 0 Z " fill="#202A7D" transform="translate(216,332)"/>
<path d="M0 0 C0.33 0.66 0.66 1.32 1 2 C0.690625 2.5775 0.38125 3.155 0.0625 3.75 C-1.28624463 6.60616511 -1.14182953 8.87975041 -1 12 C-1.66 12 -2.32 12 -3 12 C-3 11.34 -3 10.68 -3 10 C-3.66 10 -4.32 10 -5 10 C-5.68359375 8.203125 -5.68359375 8.203125 -6 6 C-4.78515625 4.296875 -4.78515625 4.296875 -3.0625 2.75 C-2.21365234 1.96882813 -2.21365234 1.96882813 -1.34765625 1.171875 C-0.90292969 0.78515625 -0.45820313 0.3984375 0 0 Z " fill="#2A3598" transform="translate(262,334)"/>
<path d="M0 0 C1.98 0 3.96 0 6 0 C6.0825 0.61875 6.165 1.2375 6.25 1.875 C6.81258459 4.18437567 6.81258459 4.18437567 9.0625 5.25 C9.701875 5.4975 10.34125 5.745 11 6 C10.67 6.99 10.34 7.98 10 9 C7.37812506 7.95125002 6.20628639 7.35068687 4.75 4.875 C4.5025 4.25625 4.255 3.6375 4 3 C3.34 3 2.68 3 2 3 C2 2.34 2 1.68 2 1 C1.34 0.67 0.68 0.34 0 0 Z " fill="#393DA0" transform="translate(205,200)"/>
<path d="M0 0 C0.33 0.66 0.66 1.32 1 2 C0.67 2.66 0.34 3.32 0 4 C0.66 4 1.32 4 2 4 C1.67 4.99 1.34 5.98 1 7 C-6.625 8.25 -6.625 8.25 -10 6 C-9.36191406 5.81824219 -8.72382813 5.63648438 -8.06640625 5.44921875 C-7.24011719 5.19785156 -6.41382813 4.94648438 -5.5625 4.6875 C-4.32693359 4.32205078 -4.32693359 4.32205078 -3.06640625 3.94921875 C-2.38449219 3.63597656 -1.70257813 3.32273438 -1 3 C-0.67 2.01 -0.34 1.02 0 0 Z " fill="#393BA6" transform="translate(193,169)"/>
<path d="M0 0 C1.32 0 2.64 0 4 0 C4 0.99 4 1.98 4 3 C5.32 3 6.64 3 8 3 C9.4606285 5.64738916 10 6.89448334 10 10 C6.74266739 8.91422246 5.99980864 8.13042199 3.875 5.5625 C3.35679687 4.94503906 2.83859375 4.32757813 2.3046875 3.69140625 C1 2 1 2 0 0 Z " fill="#2F39A6" transform="translate(246,241)"/>
<path d="M0 0 C2.0625 0.25 2.0625 0.25 4 1 C4.33 1.66 4.66 2.32 5 3 C3.68 2.67 2.36 2.34 1 2 C0.67 2.99 0.34 3.98 0 5 C-2.29167646 7.9791794 -4.33535945 8.5047783 -8 9 C-7.04270084 7.87411986 -6.08412105 6.7493285 -5.125 5.625 C-4.59132813 4.99851563 -4.05765625 4.37203125 -3.5078125 3.7265625 C-2.38567993 2.44163349 -1.20628025 1.20628025 0 0 Z " fill="#3D40A4" transform="translate(273,139)"/>
<path d="M0 0 C5.70629354 0.42797202 9.41078616 2.84345952 14 6 C13.67 6.66 13.34 7.32 13 8 C11.68 7.67 10.36 7.34 9 7 C9 6.34 9 5.68 9 5 C7.68 4.67 6.36 4.34 5 4 C5 3.34 5 2.68 5 2 C3.35 2 1.7 2 0 2 C0 1.34 0 0.68 0 0 Z " fill="#373997" transform="translate(190,126)"/>
<path d="M0 0 C0.33 0 0.66 0 1 0 C1.83229672 5.32669904 -0.99699607 8.8776946 -4 13 C-4.66 13.66 -5.32 14.32 -6 15 C-6.36801226 10.65432327 -5.3659645 8.34594362 -3.0625 4.6875 C-2.24458984 3.36298828 -2.24458984 3.36298828 -1.41015625 2.01171875 C-0.94480469 1.34785156 -0.47945312 0.68398437 0 0 Z " fill="#4242A6" transform="translate(153,137)"/>
<path d="M0 0 C0.66 0 1.32 0 2 0 C2.8125 1.6875 2.8125 1.6875 3 4 C0.6875 6.75 0.6875 6.75 -2 9 C-2.66 9 -3.32 9 -4 9 C-4 8.01 -4 7.02 -4 6 C-4.66 5.67 -5.32 5.34 -6 5 C-5.38125 4.9175 -4.7625 4.835 -4.125 4.75 C-1.81562433 4.18741541 -1.81562433 4.18741541 -0.75 1.9375 C-0.5025 1.298125 -0.255 0.65875 0 0 Z " fill="#313AB0" transform="translate(295,334)"/>
<path d="M0 0 C1.65 0.33 3.3 0.66 5 1 C4.04578192 2.14926266 3.08647955 3.29430541 2.125 4.4375 C1.59132813 5.07558594 1.05765625 5.71367187 0.5078125 6.37109375 C-1 8 -1 8 -3 9 C-3 7.35 -3 5.7 -3 4 C-2.01 4 -1.02 4 0 4 C0 2.68 0 1.36 0 0 Z " fill="#333FB8" transform="translate(347,281)"/>
<path d="M0 0 C2.97 0 5.94 0 9 0 C8.67 0.99 8.34 1.98 8 3 C5.36 3 2.72 3 0 3 C0 2.01 0 1.02 0 0 Z " fill="#3845ED" transform="translate(177,355)"/>
<path d="M0 0 C0 3.60573896 -0.81707462 4.41336566 -3 7.1875 C-3.556875 7.90292969 -4.11375 8.61835938 -4.6875 9.35546875 C-5.120625 9.89816406 -5.55375 10.44085938 -6 11 C-7.32 10.67 -8.64 10.34 -10 10 C-6.7 6.7 -3.4 3.4 0 0 Z " fill="#2E359C" transform="translate(303,293)"/>
<path d="M0 0 C0.66 0 1.32 0 2 0 C1.1875 2.4375 1.1875 2.4375 0 5 C-0.99 5.33 -1.98 5.66 -3 6 C-4.20882096 8.00016466 -4.20882096 8.00016466 -5 10 C-5.75 8.25 -5.75 8.25 -6 6 C-4.1875 3.75 -4.1875 3.75 -2 2 C-1.34 2 -0.68 2 0 2 C0 1.34 0 0.68 0 0 Z " fill="#3847EF" transform="translate(216,306)"/>
<path d="M0 0 C0.66 0 1.32 0 2 0 C2.33 1.65 2.66 3.3 3 5 C3.99 5.33 4.98 5.66 6 6 C6.33 7.65 6.66 9.3 7 11 C5.85073734 10.04578192 4.70569459 9.08647955 3.5625 8.125 C2.92441406 7.59132812 2.28632813 7.05765625 1.62890625 6.5078125 C0 5 0 5 -1 3 C-0.34 3 0.32 3 1 3 C0.67 2.01 0.34 1.02 0 0 Z " fill="#30359D" transform="translate(290,188)"/>
<path d="M0 0 C1.32 0.33 2.64 0.66 4 1 C1.69 3.31 -0.62 5.62 -3 8 C-3.66 7.01 -4.32 6.02 -5 5 C-4.67 4.34 -4.34 3.68 -4 3 C-3.34 3.33 -2.68 3.66 -2 4 C-2 3.34 -2 2.68 -2 2 C-1.34 2 -0.68 2 0 2 C0 1.34 0 0.68 0 0 Z " fill="#343CB6" transform="translate(325,305)"/>
<path d="M0 0 C1.65 0.33 3.3 0.66 5 1 C3.02 3.31 1.04 5.62 -1 8 C-1.66 6.68 -2.32 5.36 -3 4 C-2.67 3.34 -2.34 2.68 -2 2 C-1.67 2.33 -1.34 2.66 -1 3 C-0.67 2.01 -0.34 1.02 0 0 Z " fill="#3039B3" transform="translate(236,293)"/>
<path d="M0 0 C2.55028983 1.27514492 2.93081711 2.40341297 4 5 C4 5.99 4 6.98 4 8 C2.35 8 0.7 8 -1 8 C-1.625 5.6875 -1.625 5.6875 -2 3 C-1.34 2.01 -0.68 1.02 0 0 Z " fill="#3C3EB0" transform="translate(211,141)"/>
<path d="M0 0 C0.66 0.33 1.32 0.66 2 1 C-1.08632611 4.2626876 -3.93483504 7.02235218 -8 9 C-8.66 8.67 -9.32 8.34 -10 8 C-8.71064081 6.85157077 -7.41843421 5.70633773 -6.125 4.5625 C-5.04605469 3.60537109 -5.04605469 3.60537109 -3.9453125 2.62890625 C-2 1 -2 1 0 0 Z " fill="#33338B" transform="translate(164,128)"/>
<path d="M0 0 C1.42944945 2.35438733 2.08661261 3.48032433 1.625 6.25 C1.41875 6.8275 1.2125 7.405 1 8 C0.34 8 -0.32 8 -1 8 C-1 7.34 -1 6.68 -1 6 C-1.66 6 -2.32 6 -3 6 C-2.42655063 3.13275314 -2.1385485 2.1385485 0 0 Z " fill="#3848EC" transform="translate(239,286)"/>
<path d="M0 0 C0.99 0.33 1.98 0.66 3 1 C3.33 1.99 3.66 2.98 4 4 C1.03 6.475 1.03 6.475 -2 9 C-1.34 6.03 -0.68 3.06 0 0 Z " fill="#313CB9" transform="translate(243,285)"/>
<path d="M0 0 C2.96175123 0.61277612 4.38058783 1.25372522 7 3 C7 3.99 7 4.98 7 6 C4.69 5.34 2.38 4.68 0 4 C0 2.68 0 1.36 0 0 Z " fill="#4B4BE8" transform="translate(160,184)"/>
<path d="M0 0 C0.33 0 0.66 0 1 0 C1.33 2.97 1.66 5.94 2 9 C2.99 9 3.98 9 5 9 C4.67 10.65 4.34 12.3 4 14 C3.34 13.67 2.68 13.34 2 13 C2 12.34 2 11.68 2 11 C1.34 11 0.68 11 0 11 C0 7.37 0 3.74 0 0 Z " fill="#5552DB" transform="translate(146,156)"/>
<path d="M0 0 C0.33 0.99 0.66 1.98 1 3 C-0.125 5.125 -0.125 5.125 -2 7 C-4.6875 7.75 -4.6875 7.75 -7 8 C-6.02133662 6.85373678 -5.04205413 5.70800212 -4.0625 4.5625 C-3.51722656 3.92441406 -2.97195313 3.28632813 -2.41015625 2.62890625 C-1.63204305 1.73008851 -0.84063472 0.84063472 0 0 Z " fill="#2D35A1" transform="translate(283,313)"/>
<path d="M0 0 C0.66 0 1.32 0 2 0 C2 0.66 2 1.32 2 2 C3.32 2.66 4.64 3.32 6 4 C6 4.99 6 5.98 6 7 C5.401875 6.67 4.80375 6.34 4.1875 6 C1.94613529 4.79212012 1.94613529 4.79212012 -1 5 C-0.67 3.35 -0.34 1.7 0 0 Z " fill="#2E349D" transform="translate(243,207)"/>
<path d="M0 0 C-6.4 4.06153846 -6.4 4.06153846 -9.4375 3.75 C-9.953125 3.5025 -10.46875 3.255 -11 3 C-7.17860188 -0.1390056 -4.83859894 -1.61286631 0 0 Z " fill="#5150D1" transform="translate(173,128)"/>
<path d="M0 0 C2.97 0.33 5.94 0.66 9 1 C8.01 1.495 8.01 1.495 7 2 C7 2.66 7 3.32 7 4 C6.01 4.33 5.02 4.66 4 5 C3.34 4.67 2.68 4.34 2 4 C2 3.34 2 2.68 2 2 C1.34 2 0.68 2 0 2 C0 1.34 0 0.68 0 0 Z " fill="#2B3292" transform="translate(270,355)"/>
<path d="M0 0 C0 4.38968456 -2.12805101 5.76905739 -5 9 C-5.99 8.67 -6.98 8.34 -8 8 C-5.36 5.36 -2.72 2.72 0 0 Z " fill="#2A3197" transform="translate(271,325)"/>
<path d="M0 0 C0 0.99 0 1.98 0 3 C-1.32 3.33 -2.64 3.66 -4 4 C-4 4.66 -4 5.32 -4 6 C-5.32 6.33 -6.64 6.66 -8 7 C-8 6.34 -8 5.68 -8 5 C-7.34 5 -6.68 5 -6 5 C-6 4.34 -6 3.68 -6 3 C-4.02 2.01 -2.04 1.02 0 0 Z " fill="#2C359C" transform="translate(164,306)"/>
<path d="M0 0 C0.33 1.32 0.66 2.64 1 4 C0.01 4 -0.98 4 -2 4 C-2 5.32 -2 6.64 -2 8 C-3.32 7.34 -4.64 6.68 -6 6 C-4.02 4.02 -2.04 2.04 0 0 Z " fill="#2A34A0" transform="translate(210,293)"/>
<path d="M0 0 C0.33 0.66 0.66 1.32 1 2 C0.34 1.67 -0.32 1.34 -1 1 C-0.67 0.67 -0.34 0.34 0 0 Z M-3 2 C-2.34 2.33 -1.68 2.66 -1 3 C-1 3.99 -1 4.98 -1 6 C-2.65 6.33 -4.3 6.66 -6 7 C-6 6.01 -6 5.02 -6 4 C-5.01 3.34 -4.02 2.68 -3 2 Z " fill="#3748EC" transform="translate(260,266)"/>
<path d="M0 0 C2.97 0.495 2.97 0.495 6 1 C6.33 2.98 6.66 4.96 7 7 C5.83040013 6.02433888 4.66438823 5.044375 3.5 4.0625 C2.8503125 3.51722656 2.200625 2.97195312 1.53125 2.41015625 C1.0259375 1.94480469 0.520625 1.47945312 0 1 C0 0.67 0 0.34 0 0 Z " fill="#3135A0" transform="translate(224,219)"/>
<path d="M0 0 C1.65 1.32 3.3 2.64 5 4 C4.67 4.99 4.34 5.98 4 7 C1.00306862 6.00102287 -0.02709413 5.34869747 -2 3 C-2 2.34 -2 1.68 -2 1 C-1.34 0.67 -0.68 0.34 0 0 Z " fill="#4349EC" transform="translate(307,201)"/>
<path d="M0 0 C1.14926266 0.95421808 2.29430541 1.91352045 3.4375 2.875 C4.07558594 3.40867188 4.71367187 3.94234375 5.37109375 4.4921875 C7 6 7 6 8 8 C6.35 7.67 4.7 7.34 3 7 C3 6.01 3 5.02 3 4 C2.01 3.67 1.02 3.34 0 3 C0 2.01 0 1.02 0 0 Z " fill="#383AA2" transform="translate(294,158)"/>
<path d="M0 0 C1.66611905 -0.042721 3.33382885 -0.04063832 5 0 C6 1 6 1 6.0625 3.5625 C6.041875 4.366875 6.02125 5.17125 6 6 C3.97945196 4.35830472 1.97956942 2.69088222 0 1 C0 0.67 0 0.34 0 0 Z " fill="#2D359F" transform="translate(329,231)"/>
<path d="M0 0 C2.88575819 0.39803561 3.82189513 0.79009069 5.75 3.0625 C6.1625 3.701875 6.575 4.34125 7 5 C5.68 5 4.36 5 3 5 C2.67 4.01 2.34 3.02 2 2 C1.34 2 0.68 2 0 2 C0 1.34 0 0.68 0 0 Z " fill="#4248F0" transform="translate(228,214)"/>
<path d="M0 0 C1.11375 0.1546875 1.11375 0.1546875 2.25 0.3125 C-0.27956528 3.4041909 -2.97454612 4.22181332 -6.75 5.3125 C-3.42692308 0.38942308 -3.42692308 0.38942308 0 0 Z " fill="#2A3596" transform="translate(198.75,366.6875)"/>
<path d="M0 0 C-2.55991624 2.01136276 -5.04590299 3.62845496 -8 5 C-8 3.68 -8 2.36 -8 1 C-3.375 -1.125 -3.375 -1.125 0 0 Z " fill="#2F3AA4" transform="translate(178,322)"/>
<path d="M0 0 C1.65 0 3.3 0 5 0 C5.33 1.98 5.66 3.96 6 6 C3.97945196 4.35830472 1.97956942 2.69088222 0 1 C0 0.67 0 0.34 0 0 Z " fill="#2C3399" transform="translate(335,237)"/>
<path d="M0 0 C0.33 0 0.66 0 1 0 C2 4 3 8 4 12 C3.01 11.67 2.02 11.34 1 11 C-0.20272819 8.59454362 -0.10071472 7.05003047 -0.0625 4.375 C-0.05347656 3.55773437 -0.04445312 2.74046875 -0.03515625 1.8984375 C-0.02355469 1.27195313 -0.01195312 0.64546875 0 0 Z " fill="#303187" transform="translate(165,158)"/>
<path d="M0 0 C1.98 1.65 3.96 3.3 6 5 C4.68 5.99 3.36 6.98 2 8 C0.74335022 5.09399739 0 3.20395416 0 0 Z " fill="#3A3EAA" transform="translate(278,142)"/>
<path d="M0 0 C0.66 0 1.32 0 2 0 C2 0.66 2 1.32 2 2 C3.32 2.33 4.64 2.66 6 3 C6.33 4.32 6.66 5.64 7 7 C6.34 7 5.68 7 5 7 C5 6.34 5 5.68 5 5 C4.34 5 3.68 5 3 5 C3 4.34 3 3.68 3 3 C2.34 3 1.68 3 1 3 C0.67 2.01 0.34 1.02 0 0 Z " fill="#293092" transform="translate(263,348)"/>
<path d="M0 0 C0.66 0.33 1.32 0.66 2 1 C2 2.32 2 3.64 2 5 C0.02 5 -1.96 5 -4 5 C-2.68 3.35 -1.36 1.7 0 0 Z " fill="#3748EE" transform="translate(226,300)"/>
<path d="M0 0 C1 2 1 2 0.375 4.0625 C-1 6 -1 6 -3.625 6.75 C-4.800625 6.87375 -4.800625 6.87375 -6 7 C-4.02 4.69 -2.04 2.38 0 0 Z " fill="#2A349C" transform="translate(312,284)"/>
<path d="M0 0 C0.66 0 1.32 0 2 0 C2.33 0.99 2.66 1.98 3 3 C-0.465 4.485 -0.465 4.485 -4 6 C-4 5.34 -4 4.68 -4 4 C-3.34 4 -2.68 4 -2 4 C-2 3.34 -2 2.68 -2 2 C-1.34 2 -0.68 2 0 2 C0 1.34 0 0.68 0 0 Z " fill="#3742BA" transform="translate(231,272)"/>
<path d="M0 0 C2.125 0.9375 2.125 0.9375 4 2 C2.35 3.32 0.7 4.64 -1 6 C-1.33 4.35 -1.66 2.7 -2 1 C-1.34 0.67 -0.68 0.34 0 0 Z " fill="#303AB0" transform="translate(273,257)"/>
<path d="M0 0 C0.66 0 1.32 0 2 0 C2 0.66 2 1.32 2 2 C2.66 2 3.32 2 4 2 C2.25 5.875 2.25 5.875 0 7 C0 4.69 0 2.38 0 0 Z " fill="#2B328D" transform="translate(282,246)"/>
<path d="M0 0 C1.9375 0.8125 1.9375 0.8125 4 2 C4.33 2.99 4.66 3.98 5 5 C5.66 5 6.32 5 7 5 C7 5.66 7 6.32 7 7 C4.625 6.3125 4.625 6.3125 2 5 C0.6875 2.375 0.6875 2.375 0 0 Z " fill="#2A2D8E" transform="translate(273,237)"/>
<path d="M0 0 C2.31 0 4.62 0 7 0 C7.66 1.65 8.32 3.3 9 5 C6.525 4.01 6.525 4.01 4 3 C4 2.34 4 1.68 4 1 C2.68 0.67 1.36 0.34 0 0 Z " fill="#3A3C99" transform="translate(184,145)"/>
<path d="M0 0 C1.65 0 3.3 0 5 0 C5 0.99 5 1.98 5 3 C3.02 3 1.04 3 -1 3 C-0.67 2.01 -0.34 1.02 0 0 Z " fill="#343DBD" transform="translate(179,319)"/>
<path d="M0 0 C0.99 0 1.98 0 3 0 C2.6875 1.875 2.6875 1.875 2 4 C1.01 4.66 0.02 5.32 -1 6 C-1.042721 4.33388095 -1.04063832 2.66617115 -1 1 C-0.67 0.67 -0.34 0.34 0 0 Z " fill="#333CB1" transform="translate(262,268)"/>
<path d="M0 0 C0.99 0.495 0.99 0.495 2 1 C2 1.66 2 2.32 2 3 C2.66 3 3.32 3 4 3 C4 3.66 4 4.32 4 5 C4.66 5 5.32 5 6 5 C6 5.66 6 6.32 6 7 C4.35 6.67 2.7 6.34 1 6 C0.67 4.02 0.34 2.04 0 0 Z " fill="#293192" transform="translate(373,237)"/>
<path d="M0 0 C1.875 0.3125 1.875 0.3125 4 1 C4.66 1.99 5.32 2.98 6 4 C4.35 4 2.7 4 1 4 C0.67 2.68 0.34 1.36 0 0 Z " fill="#3E43BC" transform="translate(330,196)"/>
<path d="M0 0 C1.98 1.65 3.96 3.3 6 5 C4.68 5.33 3.36 5.66 2 6 C0 3 0 3 0 0 Z " fill="#383CA4" transform="translate(304,168)"/>
<path d="M0 0 C1.32 0 2.64 0 4 0 C4 0.66 4 1.32 4 2 C4.66 2 5.32 2 6 2 C5.67 3.32 5.34 4.64 5 6 C3.35 4.02 1.7 2.04 0 0 Z " fill="#303293" transform="translate(263,165)"/>
<path d="" fill="#000000" transform="translate(0,0)"/>
<path d="" fill="#000000" transform="translate(0,0)"/>
<path d="" fill="#000000" transform="translate(0,0)"/>
<path d="" fill="#000000" transform="translate(0,0)"/>
<path d="" fill="#000000" transform="translate(0,0)"/>
<path d="" fill="#000000" transform="translate(0,0)"/>
<path d="" fill="#000000" transform="translate(0,0)"/>
<path d="" fill="#000000" transform="translate(0,0)"/>
<path d="" fill="#000000" transform="translate(0,0)"/>
<path d="" fill="#000000" transform="translate(0,0)"/>
<path d="" fill="#000000" transform="translate(0,0)"/>
<path d="" fill="#000000" transform="translate(0,0)"/>
<path d="" fill="#000000" transform="translate(0,0)"/>
<path d="" fill="#000000" transform="translate(0,0)"/>
<path d="" fill="#000000" transform="translate(0,0)"/>
<path d="" fill="#000000" transform="translate(0,0)"/>
<path d="" fill="#000000" transform="translate(0,0)"/>
<path d="" fill="#000000" transform="translate(0,0)"/>
<path d="" fill="#000000" transform="translate(0,0)"/>
<path d="" fill="#000000" transform="translate(0,0)"/>
<path d="" fill="#000000" transform="translate(0,0)"/>
<path d="" fill="#000000" transform="translate(0,0)"/>
<path d="" fill="#000000" transform="translate(0,0)"/>
<path d="" fill="#000000" transform="translate(0,0)"/>
<path d="" fill="#000000" transform="translate(0,0)"/>
<path d="" fill="#000000" transform="translate(0,0)"/>
<path d="" fill="#000000" transform="translate(0,0)"/>
<path d="" fill="#000000" transform="translate(0,0)"/>
<path d="" fill="#000000" transform="translate(0,0)"/>
<path d="" fill="#000000" transform="translate(0,0)"/>
<path d="" fill="#000000" transform="translate(0,0)"/>
<path d="" fill="#000000" transform="translate(0,0)"/>
<path d="" fill="#000000" transform="translate(0,0)"/>
<path d="" fill="#000000" transform="translate(0,0)"/>
<path d="" fill="#000000" transform="translate(0,0)"/>
<path d="" fill="#000000" transform="translate(0,0)"/>
<path d="" fill="#000000" transform="translate(0,0)"/>
<path d="" fill="#000000" transform="translate(0,0)"/>
<path d="" fill="#000000" transform="translate(0,0)"/>
<path d="" fill="#000000" transform="translate(0,0)"/>
<path d="" fill="#000000" transform="translate(0,0)"/>
<path d="" fill="#000000" transform="translate(0,0)"/>
<path d="" fill="#000000" transform="translate(0,0)"/>
<path d="" fill="#000000" transform="translate(0,0)"/>
<path d="" fill="#000000" transform="translate(0,0)"/>
<path d="" fill="#000000" transform="translate(0,0)"/>
<path d="" fill="#000000" transform="translate(0,0)"/>
<path d="" fill="#000000" transform="translate(0,0)"/>
<path d="" fill="#000000" transform="translate(0,0)"/>
<path d="" fill="#000000" transform="translate(0,0)"/>
<path d="" fill="#000000" transform="translate(0,0)"/>
<path d="" fill="#000000" transform="translate(0,0)"/>
<path d="" fill="#000000" transform="translate(0,0)"/>
<path d="" fill="#000000" transform="translate(0,0)"/>
<path d="" fill="#000000" transform="translate(0,0)"/>
<path d="" fill="#000000" transform="translate(0,0)"/>
<path d="" fill="#000000" transform="translate(0,0)"/>
<path d="" fill="#000000" transform="translate(0,0)"/>
<path d="" fill="#000000" transform="translate(0,0)"/>
<path d="" fill="#000000" transform="translate(0,0)"/>
<path d="" fill="#000000" transform="translate(0,0)"/>
<path d="" fill="#000000" transform="translate(0,0)"/>
<path d="" fill="#000000" transform="translate(0,0)"/>
<path d="" fill="#000000" transform="translate(0,0)"/>
<path d="" fill="#000000" transform="translate(0,0)"/>
<path d="" fill="#000000" transform="translate(0,0)"/>
<path d="" fill="#000000" transform="translate(0,0)"/>
<path d="" fill="#000000" transform="translate(0,0)"/>
<path d="" fill="#000000" transform="translate(0,0)"/>
<path d="" fill="#000000" transform="translate(0,0)"/>
<path d="" fill="#000000" transform="translate(0,0)"/>
<path d="" fill="#000000" transform="translate(0,0)"/>
<path d="" fill="#000000" transform="translate(0,0)"/>
</svg>
